<mxfile host="app.diagrams.net" modified="2020-04-13T09:52:09.278Z" agent="5.0 (Macintosh; Intel Mac OS X 10_13_6) AppleWebKit/605.1.15 (KHTML, like Gecko) Version/13.1 Safari/605.1.15" etag="EV6Kk_csPFPgMg5BLOtU" version="12.9.11" type="github">
  <diagram id="5-Ww_WRg5YdvWwftIxh6" name="Page-1">
    <mxGraphModel dx="724" dy="537" grid="1" gridSize="10" guides="1" tooltips="1" connect="1" arrows="1" fold="1" page="1" pageScale="1" pageWidth="827" pageHeight="1169" math="0" shadow="0">
      <root>
        <mxCell id="0" />
        <mxCell id="1" parent="0" />
        <mxCell id="unh63Ro2Q2eI0IHf_xE5-1" value="" style="rounded=1;whiteSpace=wrap;html=1;shadow=1;" vertex="1" parent="1">
          <mxGeometry x="235" y="260" width="275" height="270" as="geometry" />
        </mxCell>
        <mxCell id="unh63Ro2Q2eI0IHf_xE5-2" value="&lt;font style=&quot;font-size: 9px&quot;&gt;PROCESS CHAIN&lt;/font&gt;" style="text;html=1;strokeColor=#6c8ebf;fillColor=#dae8fc;align=center;verticalAlign=middle;whiteSpace=wrap;rounded=0;shadow=1;" vertex="1" parent="1">
          <mxGeometry x="260" y="277.5" width="90" height="20" as="geometry" />
        </mxCell>
        <mxCell id="unh63Ro2Q2eI0IHf_xE5-3" value="&lt;font style=&quot;font-size: 9px&quot;&gt;Mixing&lt;/font&gt;" style="rounded=0;whiteSpace=wrap;html=1;shadow=1;fillColor=#ffe6cc;strokeColor=#d79b00;" vertex="1" parent="1">
          <mxGeometry x="270" y="305" width="30" height="25" as="geometry" />
        </mxCell>
        <mxCell id="unh63Ro2Q2eI0IHf_xE5-4" value="&lt;font style=&quot;font-size: 9px&quot;&gt;Coating&lt;br&gt;&lt;/font&gt;" style="rounded=0;whiteSpace=wrap;html=1;shadow=1;fillColor=#ffe6cc;strokeColor=#d79b00;" vertex="1" parent="1">
          <mxGeometry x="300" y="305" width="40" height="25" as="geometry" />
        </mxCell>
        <mxCell id="unh63Ro2Q2eI0IHf_xE5-5" value="&lt;font style=&quot;font-size: 9px&quot;&gt;Drying&lt;br&gt;&lt;/font&gt;" style="rounded=0;whiteSpace=wrap;html=1;shadow=1;fillColor=#ffe6cc;strokeColor=#d79b00;" vertex="1" parent="1">
          <mxGeometry x="340" y="305" width="30" height="25" as="geometry" />
        </mxCell>
        <mxCell id="unh63Ro2Q2eI0IHf_xE5-6" value="&lt;font style=&quot;font-size: 9px&quot;&gt;Calendering&lt;br&gt;&lt;/font&gt;" style="rounded=0;whiteSpace=wrap;html=1;shadow=1;fillColor=#ffe6cc;strokeColor=#d79b00;" vertex="1" parent="1">
          <mxGeometry x="370" y="305" width="50" height="25" as="geometry" />
        </mxCell>
        <mxCell id="unh63Ro2Q2eI0IHf_xE5-7" value="&lt;font style=&quot;font-size: 9px&quot;&gt;Stacking&lt;br&gt;&lt;/font&gt;" style="rounded=0;whiteSpace=wrap;html=1;shadow=1;fillColor=#ffe6cc;strokeColor=#d79b00;" vertex="1" parent="1">
          <mxGeometry x="440" y="305" width="40" height="25" as="geometry" />
        </mxCell>
        <mxCell id="unh63Ro2Q2eI0IHf_xE5-8" value="&lt;font style=&quot;font-size: 9px&quot;&gt;MACHINE&lt;/font&gt;" style="text;html=1;strokeColor=#6c8ebf;fillColor=#dae8fc;align=center;verticalAlign=middle;whiteSpace=wrap;rounded=0;shadow=1;" vertex="1" parent="1">
          <mxGeometry x="430" y="277.5" width="50" height="20" as="geometry" />
        </mxCell>
        <mxCell id="unh63Ro2Q2eI0IHf_xE5-23" style="edgeStyle=orthogonalEdgeStyle;rounded=0;orthogonalLoop=1;jettySize=auto;html=1;exitX=0.5;exitY=1;exitDx=0;exitDy=0;" edge="1" parent="1" source="unh63Ro2Q2eI0IHf_xE5-9" target="unh63Ro2Q2eI0IHf_xE5-21">
          <mxGeometry relative="1" as="geometry" />
        </mxCell>
        <mxCell id="unh63Ro2Q2eI0IHf_xE5-9" value="&lt;font style=&quot;font-size: 14px&quot;&gt;Electrical Power Data&lt;/font&gt;" style="text;html=1;strokeColor=#b85450;fillColor=#f8cecc;align=center;verticalAlign=middle;whiteSpace=wrap;rounded=0;shadow=1;" vertex="1" parent="1">
          <mxGeometry x="265" y="400" width="220" height="30" as="geometry" />
        </mxCell>
        <mxCell id="unh63Ro2Q2eI0IHf_xE5-11" value="" style="endArrow=none;html=1;strokeColor=#7EA6E0;strokeWidth=1;fillColor=#FFD966;entryX=0.5;entryY=1;entryDx=0;entryDy=0;" edge="1" parent="1" target="unh63Ro2Q2eI0IHf_xE5-6">
          <mxGeometry width="50" height="50" relative="1" as="geometry">
            <mxPoint x="395" y="350" as="sourcePoint" />
            <mxPoint x="450" y="320" as="targetPoint" />
          </mxGeometry>
        </mxCell>
        <mxCell id="unh63Ro2Q2eI0IHf_xE5-12" value="&lt;font style=&quot;font-size: 9px&quot;&gt;Calender&lt;br&gt;&lt;/font&gt;" style="rounded=0;whiteSpace=wrap;html=1;shadow=1;fillColor=#fff2cc;strokeColor=#d6b656;" vertex="1" parent="1">
          <mxGeometry x="370" y="347.5" width="50" height="30" as="geometry" />
        </mxCell>
        <mxCell id="unh63Ro2Q2eI0IHf_xE5-13" value="" style="endArrow=none;html=1;strokeColor=#7EA6E0;strokeWidth=1;fillColor=#FFD966;entryX=0.5;entryY=1;entryDx=0;entryDy=0;" edge="1" parent="1">
          <mxGeometry width="50" height="50" relative="1" as="geometry">
            <mxPoint x="454.65999999999985" y="350" as="sourcePoint" />
            <mxPoint x="454.65999999999985" y="330" as="targetPoint" />
          </mxGeometry>
        </mxCell>
        <mxCell id="unh63Ro2Q2eI0IHf_xE5-14" value="&lt;font style=&quot;font-size: 9px&quot;&gt;Z-Folder&lt;br&gt;&lt;/font&gt;" style="rounded=0;whiteSpace=wrap;html=1;shadow=1;fillColor=#fff2cc;strokeColor=#d6b656;" vertex="1" parent="1">
          <mxGeometry x="440" y="347.5" width="40" height="30" as="geometry" />
        </mxCell>
        <mxCell id="unh63Ro2Q2eI0IHf_xE5-15" value="" style="endArrow=none;html=1;strokeColor=#7EA6E0;strokeWidth=1;fillColor=#FFD966;entryX=0.5;entryY=1;entryDx=0;entryDy=0;" edge="1" parent="1">
          <mxGeometry width="50" height="50" relative="1" as="geometry">
            <mxPoint x="329.65999999999985" y="350" as="sourcePoint" />
            <mxPoint x="329.65999999999985" y="330" as="targetPoint" />
          </mxGeometry>
        </mxCell>
        <mxCell id="unh63Ro2Q2eI0IHf_xE5-16" value="" style="endArrow=none;html=1;strokeColor=#7EA6E0;strokeWidth=1;fillColor=#FFD966;entryX=0.5;entryY=1;entryDx=0;entryDy=0;" edge="1" parent="1">
          <mxGeometry width="50" height="50" relative="1" as="geometry">
            <mxPoint x="284.65999999999997" y="350" as="sourcePoint" />
            <mxPoint x="284.65999999999997" y="330" as="targetPoint" />
          </mxGeometry>
        </mxCell>
        <mxCell id="unh63Ro2Q2eI0IHf_xE5-17" value="&lt;span style=&quot;font-size: 9px&quot;&gt;Planetary mixer&lt;/span&gt;" style="rounded=0;whiteSpace=wrap;html=1;shadow=1;fillColor=#fff2cc;strokeColor=#d6b656;" vertex="1" parent="1">
          <mxGeometry x="265" y="347.5" width="40" height="35" as="geometry" />
        </mxCell>
        <mxCell id="unh63Ro2Q2eI0IHf_xE5-18" value="&lt;font style=&quot;font-size: 9px&quot;&gt;Extruder/ Coater&lt;br&gt;&lt;/font&gt;" style="rounded=0;whiteSpace=wrap;html=1;shadow=1;fillColor=#fff2cc;strokeColor=#d6b656;" vertex="1" parent="1">
          <mxGeometry x="310" y="347.5" width="40" height="35" as="geometry" />
        </mxCell>
        <mxCell id="unh63Ro2Q2eI0IHf_xE5-19" value="...." style="text;html=1;strokeColor=none;fillColor=none;align=center;verticalAlign=middle;whiteSpace=wrap;rounded=0;shadow=1;" vertex="1" parent="1">
          <mxGeometry x="410" y="313" width="40" height="20" as="geometry" />
        </mxCell>
        <mxCell id="unh63Ro2Q2eI0IHf_xE5-25" style="edgeStyle=orthogonalEdgeStyle;rounded=0;orthogonalLoop=1;jettySize=auto;html=1;exitX=0.5;exitY=1;exitDx=0;exitDy=0;entryX=0.5;entryY=0;entryDx=0;entryDy=0;" edge="1" parent="1" source="unh63Ro2Q2eI0IHf_xE5-21" target="unh63Ro2Q2eI0IHf_xE5-24">
          <mxGeometry relative="1" as="geometry" />
        </mxCell>
        <mxCell id="unh63Ro2Q2eI0IHf_xE5-21" value="&lt;font style=&quot;font-size: 11px&quot;&gt;Data Mining&lt;/font&gt;" style="text;html=1;strokeColor=#6c8ebf;fillColor=#dae8fc;align=center;verticalAlign=middle;whiteSpace=wrap;rounded=0;shadow=1;" vertex="1" parent="1">
          <mxGeometry x="330" y="450" width="90" height="20" as="geometry" />
        </mxCell>
        <mxCell id="unh63Ro2Q2eI0IHf_xE5-24" value="&lt;span style=&quot;font-size: 14px&quot;&gt;Machine states Identification&lt;/span&gt;" style="text;html=1;strokeColor=#d6b656;fillColor=#fff2cc;align=center;verticalAlign=middle;whiteSpace=wrap;rounded=0;shadow=1;" vertex="1" parent="1">
          <mxGeometry x="265" y="490" width="220" height="30" as="geometry" />
        </mxCell>
      </root>
    </mxGraphModel>
  </diagram>
</mxfile>
